<mxfile host="app.diagrams.net" agent="Mozilla/5.0 (Windows NT 10.0; Win64; x64; rv:132.0) Gecko/20100101 Firefox/132.0" version="24.8.4">
  <diagram id="C5RBs43oDa-KdzZeNtuy" name="Page-1">
    <mxGraphModel dx="1050" dy="558" grid="1" gridSize="10" guides="1" tooltips="1" connect="1" arrows="1" fold="1" page="1" pageScale="1" pageWidth="827" pageHeight="1169" math="0" shadow="0">
      <root>
        <mxCell id="WIyWlLk6GJQsqaUBKTNV-0" />
        <mxCell id="WIyWlLk6GJQsqaUBKTNV-1" parent="WIyWlLk6GJQsqaUBKTNV-0" />
        <mxCell id="Tj_WuYeDJnZgy0C1tKeC-23" style="edgeStyle=orthogonalEdgeStyle;rounded=0;orthogonalLoop=1;jettySize=auto;html=1;entryX=0.5;entryY=0;entryDx=0;entryDy=0;" parent="WIyWlLk6GJQsqaUBKTNV-1" source="dZY50vlLdihh-ie8BGf--15" target="dZY50vlLdihh-ie8BGf--2" edge="1">
          <mxGeometry relative="1" as="geometry">
            <mxPoint x="380" y="100" as="sourcePoint" />
            <mxPoint x="380" y="140" as="targetPoint" />
          </mxGeometry>
        </mxCell>
        <mxCell id="WIyWlLk6GJQsqaUBKTNV-6" value="&lt;div&gt;Who&lt;/div&gt;&lt;div&gt;Action First&lt;/div&gt;" style="rhombus;whiteSpace=wrap;html=1;shadow=0;fontFamily=Helvetica;fontSize=12;align=center;strokeWidth=1;spacing=6;spacingTop=-4;" parent="WIyWlLk6GJQsqaUBKTNV-1" vertex="1">
          <mxGeometry x="330" y="320" width="100" height="50" as="geometry" />
        </mxCell>
        <mxCell id="Tj_WuYeDJnZgy0C1tKeC-25" style="edgeStyle=orthogonalEdgeStyle;rounded=0;orthogonalLoop=1;jettySize=auto;html=1;entryX=0.5;entryY=0;entryDx=0;entryDy=0;" parent="WIyWlLk6GJQsqaUBKTNV-1" source="dZY50vlLdihh-ie8BGf--4" target="WIyWlLk6GJQsqaUBKTNV-6" edge="1">
          <mxGeometry relative="1" as="geometry">
            <mxPoint x="380" y="350" as="sourcePoint" />
          </mxGeometry>
        </mxCell>
        <mxCell id="Tj_WuYeDJnZgy0C1tKeC-8" value="" style="endArrow=classic;html=1;rounded=0;exitX=0;exitY=1;exitDx=0;exitDy=0;" parent="WIyWlLk6GJQsqaUBKTNV-1" source="WIyWlLk6GJQsqaUBKTNV-6" target="dZY50vlLdihh-ie8BGf--12" edge="1">
          <mxGeometry width="50" height="50" relative="1" as="geometry">
            <mxPoint x="390" y="540" as="sourcePoint" />
            <mxPoint x="260" y="510" as="targetPoint" />
          </mxGeometry>
        </mxCell>
        <mxCell id="Tj_WuYeDJnZgy0C1tKeC-9" value="" style="endArrow=classic;html=1;rounded=0;exitX=1;exitY=1;exitDx=0;exitDy=0;" parent="WIyWlLk6GJQsqaUBKTNV-1" source="WIyWlLk6GJQsqaUBKTNV-6" target="dZY50vlLdihh-ie8BGf--11" edge="1">
          <mxGeometry width="50" height="50" relative="1" as="geometry">
            <mxPoint x="365" y="470" as="sourcePoint" />
            <mxPoint x="500" y="510" as="targetPoint" />
          </mxGeometry>
        </mxCell>
        <mxCell id="Tj_WuYeDJnZgy0C1tKeC-10" value="Player A First" style="text;html=1;align=center;verticalAlign=middle;whiteSpace=wrap;rounded=0;" parent="WIyWlLk6GJQsqaUBKTNV-1" vertex="1">
          <mxGeometry x="260" y="360" width="60" height="30" as="geometry" />
        </mxCell>
        <mxCell id="Tj_WuYeDJnZgy0C1tKeC-11" value="Player B First" style="text;html=1;align=center;verticalAlign=middle;whiteSpace=wrap;rounded=0;" parent="WIyWlLk6GJQsqaUBKTNV-1" vertex="1">
          <mxGeometry x="439" y="360" width="60" height="30" as="geometry" />
        </mxCell>
        <mxCell id="Tj_WuYeDJnZgy0C1tKeC-21" style="edgeStyle=orthogonalEdgeStyle;rounded=0;orthogonalLoop=1;jettySize=auto;html=1;exitX=0;exitY=0.5;exitDx=0;exitDy=0;" parent="WIyWlLk6GJQsqaUBKTNV-1" source="Tj_WuYeDJnZgy0C1tKeC-16" target="dZY50vlLdihh-ie8BGf--4" edge="1">
          <mxGeometry relative="1" as="geometry">
            <Array as="points">
              <mxPoint x="140" y="830" />
              <mxPoint x="140" y="280" />
            </Array>
            <mxPoint x="320" y="330" as="targetPoint" />
          </mxGeometry>
        </mxCell>
        <mxCell id="Tj_WuYeDJnZgy0C1tKeC-26" style="edgeStyle=orthogonalEdgeStyle;rounded=0;orthogonalLoop=1;jettySize=auto;html=1;exitX=0.5;exitY=1;exitDx=0;exitDy=0;entryX=0.5;entryY=0;entryDx=0;entryDy=0;" parent="WIyWlLk6GJQsqaUBKTNV-1" source="Tj_WuYeDJnZgy0C1tKeC-16" target="dZY50vlLdihh-ie8BGf--14" edge="1">
          <mxGeometry relative="1" as="geometry">
            <mxPoint x="380" y="870" as="targetPoint" />
          </mxGeometry>
        </mxCell>
        <mxCell id="Tj_WuYeDJnZgy0C1tKeC-16" value="&lt;div&gt;if one player&lt;/div&gt;&lt;div&gt;hp &amp;lt; 0 or 10 truns&lt;br&gt;&lt;/div&gt;" style="rhombus;whiteSpace=wrap;html=1;shadow=0;fontFamily=Helvetica;fontSize=12;align=center;strokeWidth=1;spacing=6;spacingTop=-4;" parent="WIyWlLk6GJQsqaUBKTNV-1" vertex="1">
          <mxGeometry x="295" y="790" width="170" height="80" as="geometry" />
        </mxCell>
        <mxCell id="Tj_WuYeDJnZgy0C1tKeC-18" value="" style="endArrow=classic;html=1;rounded=0;exitX=0.5;exitY=1;exitDx=0;exitDy=0;entryX=0;entryY=0;entryDx=0;entryDy=0;" parent="WIyWlLk6GJQsqaUBKTNV-1" source="dZY50vlLdihh-ie8BGf--7" target="dZY50vlLdihh-ie8BGf--13" edge="1">
          <mxGeometry width="50" height="50" relative="1" as="geometry">
            <mxPoint x="260" y="620" as="sourcePoint" />
            <mxPoint x="320" y="690" as="targetPoint" />
          </mxGeometry>
        </mxCell>
        <mxCell id="Tj_WuYeDJnZgy0C1tKeC-19" value="" style="endArrow=classic;html=1;rounded=0;exitX=0.5;exitY=1;exitDx=0;exitDy=0;entryX=1;entryY=0;entryDx=0;entryDy=0;" parent="WIyWlLk6GJQsqaUBKTNV-1" source="dZY50vlLdihh-ie8BGf--8" target="dZY50vlLdihh-ie8BGf--13" edge="1">
          <mxGeometry width="50" height="50" relative="1" as="geometry">
            <mxPoint x="500" y="620" as="sourcePoint" />
            <mxPoint x="440" y="690" as="targetPoint" />
          </mxGeometry>
        </mxCell>
        <mxCell id="Tj_WuYeDJnZgy0C1tKeC-20" value="" style="endArrow=classic;html=1;rounded=0;exitX=0.5;exitY=1;exitDx=0;exitDy=0;entryX=0.5;entryY=0;entryDx=0;entryDy=0;" parent="WIyWlLk6GJQsqaUBKTNV-1" source="dZY50vlLdihh-ie8BGf--13" target="Tj_WuYeDJnZgy0C1tKeC-16" edge="1">
          <mxGeometry width="50" height="50" relative="1" as="geometry">
            <mxPoint x="380" y="730" as="sourcePoint" />
            <mxPoint x="450" y="675" as="targetPoint" />
          </mxGeometry>
        </mxCell>
        <mxCell id="Tj_WuYeDJnZgy0C1tKeC-22" value="No" style="text;html=1;align=center;verticalAlign=middle;whiteSpace=wrap;rounded=0;" parent="WIyWlLk6GJQsqaUBKTNV-1" vertex="1">
          <mxGeometry x="188.75" y="800" width="60" height="30" as="geometry" />
        </mxCell>
        <mxCell id="Tj_WuYeDJnZgy0C1tKeC-27" value="Yes" style="text;html=1;align=center;verticalAlign=middle;whiteSpace=wrap;rounded=0;" parent="WIyWlLk6GJQsqaUBKTNV-1" vertex="1">
          <mxGeometry x="380" y="860" width="60" height="30" as="geometry" />
        </mxCell>
        <mxCell id="Tj_WuYeDJnZgy0C1tKeC-35" style="edgeStyle=orthogonalEdgeStyle;rounded=0;orthogonalLoop=1;jettySize=auto;html=1;" parent="WIyWlLk6GJQsqaUBKTNV-1" source="dZY50vlLdihh-ie8BGf--3" target="dZY50vlLdihh-ie8BGf--4" edge="1">
          <mxGeometry relative="1" as="geometry">
            <mxPoint x="380" y="260" as="sourcePoint" />
            <mxPoint x="380" y="310" as="targetPoint" />
          </mxGeometry>
        </mxCell>
        <mxCell id="Tj_WuYeDJnZgy0C1tKeC-39" style="edgeStyle=orthogonalEdgeStyle;rounded=0;orthogonalLoop=1;jettySize=auto;html=1;exitX=0.5;exitY=1;exitDx=0;exitDy=0;entryX=0.5;entryY=0;entryDx=0;entryDy=0;" parent="WIyWlLk6GJQsqaUBKTNV-1" source="dZY50vlLdihh-ie8BGf--14" target="Tj_WuYeDJnZgy0C1tKeC-37" edge="1">
          <mxGeometry relative="1" as="geometry">
            <mxPoint x="380" y="910" as="sourcePoint" />
          </mxGeometry>
        </mxCell>
        <mxCell id="Tj_WuYeDJnZgy0C1tKeC-40" style="edgeStyle=orthogonalEdgeStyle;rounded=0;orthogonalLoop=1;jettySize=auto;html=1;exitX=0;exitY=0.5;exitDx=0;exitDy=0;" parent="WIyWlLk6GJQsqaUBKTNV-1" source="Tj_WuYeDJnZgy0C1tKeC-37" target="dZY50vlLdihh-ie8BGf--3" edge="1">
          <mxGeometry relative="1" as="geometry">
            <Array as="points">
              <mxPoint x="120" y="1020" />
              <mxPoint x="120" y="220" />
            </Array>
            <mxPoint x="320" y="240" as="targetPoint" />
          </mxGeometry>
        </mxCell>
        <mxCell id="Tj_WuYeDJnZgy0C1tKeC-45" style="edgeStyle=orthogonalEdgeStyle;rounded=0;orthogonalLoop=1;jettySize=auto;html=1;exitX=0.5;exitY=1;exitDx=0;exitDy=0;" parent="WIyWlLk6GJQsqaUBKTNV-1" source="Tj_WuYeDJnZgy0C1tKeC-37" target="dZY50vlLdihh-ie8BGf--1" edge="1">
          <mxGeometry relative="1" as="geometry">
            <mxPoint x="380" y="1080" as="targetPoint" />
            <Array as="points">
              <mxPoint x="380" y="1050" />
              <mxPoint x="381" y="1050" />
            </Array>
          </mxGeometry>
        </mxCell>
        <mxCell id="Tj_WuYeDJnZgy0C1tKeC-37" value="&lt;div&gt;If one player&amp;nbsp;&lt;/div&gt;&lt;div&gt;Wins two more matches than&amp;nbsp;&lt;/div&gt;&lt;div&gt;the other player&lt;/div&gt;&lt;div&gt;(not contain Draw)&lt;br&gt;&lt;/div&gt;" style="rhombus;whiteSpace=wrap;html=1;shadow=0;fontFamily=Helvetica;fontSize=12;align=center;strokeWidth=1;spacing=6;spacingTop=-4;" parent="WIyWlLk6GJQsqaUBKTNV-1" vertex="1">
          <mxGeometry x="248.75" y="980" width="262.5" height="80" as="geometry" />
        </mxCell>
        <mxCell id="Tj_WuYeDJnZgy0C1tKeC-41" value="No" style="text;html=1;align=center;verticalAlign=middle;whiteSpace=wrap;rounded=0;" parent="WIyWlLk6GJQsqaUBKTNV-1" vertex="1">
          <mxGeometry x="180" y="990" width="60" height="30" as="geometry" />
        </mxCell>
        <mxCell id="Tj_WuYeDJnZgy0C1tKeC-43" value="Yes" style="text;html=1;align=center;verticalAlign=middle;whiteSpace=wrap;rounded=0;" parent="WIyWlLk6GJQsqaUBKTNV-1" vertex="1">
          <mxGeometry x="375" y="1060" width="60" height="30" as="geometry" />
        </mxCell>
        <mxCell id="dZY50vlLdihh-ie8BGf--1" value="Game Finished" style="ellipse;whiteSpace=wrap;html=1;" vertex="1" parent="WIyWlLk6GJQsqaUBKTNV-1">
          <mxGeometry x="319" y="1090" width="120" height="40" as="geometry" />
        </mxCell>
        <mxCell id="dZY50vlLdihh-ie8BGf--18" style="edgeStyle=orthogonalEdgeStyle;rounded=0;orthogonalLoop=1;jettySize=auto;html=1;exitX=0.5;exitY=1;exitDx=0;exitDy=0;entryX=0.5;entryY=0;entryDx=0;entryDy=0;" edge="1" parent="WIyWlLk6GJQsqaUBKTNV-1" source="dZY50vlLdihh-ie8BGf--2" target="dZY50vlLdihh-ie8BGf--3">
          <mxGeometry relative="1" as="geometry" />
        </mxCell>
        <mxCell id="dZY50vlLdihh-ie8BGf--2" value="New Game" style="rounded=0;whiteSpace=wrap;html=1;" vertex="1" parent="WIyWlLk6GJQsqaUBKTNV-1">
          <mxGeometry x="320" y="140" width="120" height="40" as="geometry" />
        </mxCell>
        <mxCell id="dZY50vlLdihh-ie8BGf--3" value="New Match" style="rounded=0;whiteSpace=wrap;html=1;" vertex="1" parent="WIyWlLk6GJQsqaUBKTNV-1">
          <mxGeometry x="320" y="200" width="120" height="40" as="geometry" />
        </mxCell>
        <mxCell id="dZY50vlLdihh-ie8BGf--4" value="New Turn" style="rounded=0;whiteSpace=wrap;html=1;" vertex="1" parent="WIyWlLk6GJQsqaUBKTNV-1">
          <mxGeometry x="320" y="260" width="120" height="40" as="geometry" />
        </mxCell>
        <mxCell id="dZY50vlLdihh-ie8BGf--30" style="edgeStyle=orthogonalEdgeStyle;rounded=0;orthogonalLoop=1;jettySize=auto;html=1;exitX=0.5;exitY=1;exitDx=0;exitDy=0;entryX=0.5;entryY=0;entryDx=0;entryDy=0;" edge="1" parent="WIyWlLk6GJQsqaUBKTNV-1" source="dZY50vlLdihh-ie8BGf--5" target="dZY50vlLdihh-ie8BGf--26">
          <mxGeometry relative="1" as="geometry" />
        </mxCell>
        <mxCell id="dZY50vlLdihh-ie8BGf--5" value="Player B Action" style="rounded=0;whiteSpace=wrap;html=1;" vertex="1" parent="WIyWlLk6GJQsqaUBKTNV-1">
          <mxGeometry x="439" y="460" width="120" height="40" as="geometry" />
        </mxCell>
        <mxCell id="dZY50vlLdihh-ie8BGf--33" style="edgeStyle=orthogonalEdgeStyle;rounded=0;orthogonalLoop=1;jettySize=auto;html=1;exitX=0.5;exitY=1;exitDx=0;exitDy=0;" edge="1" parent="WIyWlLk6GJQsqaUBKTNV-1" source="dZY50vlLdihh-ie8BGf--6" target="dZY50vlLdihh-ie8BGf--27">
          <mxGeometry relative="1" as="geometry" />
        </mxCell>
        <mxCell id="dZY50vlLdihh-ie8BGf--6" value="Player A Action" style="rounded=0;whiteSpace=wrap;html=1;" vertex="1" parent="WIyWlLk6GJQsqaUBKTNV-1">
          <mxGeometry x="200" y="460" width="120" height="40" as="geometry" />
        </mxCell>
        <mxCell id="dZY50vlLdihh-ie8BGf--7" value="Player B Action" style="rounded=0;whiteSpace=wrap;html=1;" vertex="1" parent="WIyWlLk6GJQsqaUBKTNV-1">
          <mxGeometry x="200" y="660" width="120" height="40" as="geometry" />
        </mxCell>
        <mxCell id="dZY50vlLdihh-ie8BGf--8" value="Player A Action" style="rounded=0;whiteSpace=wrap;html=1;" vertex="1" parent="WIyWlLk6GJQsqaUBKTNV-1">
          <mxGeometry x="439" y="660" width="120" height="40" as="geometry" />
        </mxCell>
        <mxCell id="dZY50vlLdihh-ie8BGf--21" style="edgeStyle=orthogonalEdgeStyle;rounded=0;orthogonalLoop=1;jettySize=auto;html=1;exitX=0.5;exitY=1;exitDx=0;exitDy=0;" edge="1" parent="WIyWlLk6GJQsqaUBKTNV-1" source="dZY50vlLdihh-ie8BGf--9" target="dZY50vlLdihh-ie8BGf--7">
          <mxGeometry relative="1" as="geometry" />
        </mxCell>
        <mxCell id="dZY50vlLdihh-ie8BGf--9" value="&lt;div&gt;Player B&lt;/div&gt;&lt;div&gt;Trigger Random Event&lt;/div&gt;" style="rounded=0;whiteSpace=wrap;html=1;" vertex="1" parent="WIyWlLk6GJQsqaUBKTNV-1">
          <mxGeometry x="200" y="600" width="120" height="40" as="geometry" />
        </mxCell>
        <mxCell id="dZY50vlLdihh-ie8BGf--23" style="edgeStyle=orthogonalEdgeStyle;rounded=0;orthogonalLoop=1;jettySize=auto;html=1;exitX=0.5;exitY=1;exitDx=0;exitDy=0;" edge="1" parent="WIyWlLk6GJQsqaUBKTNV-1" source="dZY50vlLdihh-ie8BGf--10" target="dZY50vlLdihh-ie8BGf--8">
          <mxGeometry relative="1" as="geometry" />
        </mxCell>
        <mxCell id="dZY50vlLdihh-ie8BGf--10" value="&lt;div&gt;Player A&lt;br&gt;&lt;/div&gt;&lt;div&gt;Trigger Random Event&lt;/div&gt;" style="rounded=0;whiteSpace=wrap;html=1;" vertex="1" parent="WIyWlLk6GJQsqaUBKTNV-1">
          <mxGeometry x="439" y="600" width="120" height="40" as="geometry" />
        </mxCell>
        <mxCell id="dZY50vlLdihh-ie8BGf--29" style="edgeStyle=orthogonalEdgeStyle;rounded=0;orthogonalLoop=1;jettySize=auto;html=1;exitX=0.5;exitY=1;exitDx=0;exitDy=0;entryX=0.5;entryY=0;entryDx=0;entryDy=0;" edge="1" parent="WIyWlLk6GJQsqaUBKTNV-1" source="dZY50vlLdihh-ie8BGf--11" target="dZY50vlLdihh-ie8BGf--5">
          <mxGeometry relative="1" as="geometry" />
        </mxCell>
        <mxCell id="dZY50vlLdihh-ie8BGf--11" value="&lt;div&gt;Player B&lt;/div&gt;&lt;div&gt;Trigger Random Event&lt;/div&gt;" style="rounded=0;whiteSpace=wrap;html=1;" vertex="1" parent="WIyWlLk6GJQsqaUBKTNV-1">
          <mxGeometry x="440" y="400" width="120" height="40" as="geometry" />
        </mxCell>
        <mxCell id="dZY50vlLdihh-ie8BGf--28" style="edgeStyle=orthogonalEdgeStyle;rounded=0;orthogonalLoop=1;jettySize=auto;html=1;exitX=0.5;exitY=1;exitDx=0;exitDy=0;entryX=0.5;entryY=0;entryDx=0;entryDy=0;" edge="1" parent="WIyWlLk6GJQsqaUBKTNV-1" source="dZY50vlLdihh-ie8BGf--12" target="dZY50vlLdihh-ie8BGf--6">
          <mxGeometry relative="1" as="geometry" />
        </mxCell>
        <mxCell id="dZY50vlLdihh-ie8BGf--12" value="&lt;div&gt;Player A&lt;br&gt;&lt;/div&gt;&lt;div&gt;Trigger Random Event&lt;/div&gt;" style="rounded=0;whiteSpace=wrap;html=1;" vertex="1" parent="WIyWlLk6GJQsqaUBKTNV-1">
          <mxGeometry x="200" y="400" width="120" height="40" as="geometry" />
        </mxCell>
        <mxCell id="dZY50vlLdihh-ie8BGf--16" value="" style="edgeStyle=orthogonalEdgeStyle;rounded=0;orthogonalLoop=1;jettySize=auto;html=1;exitX=0.5;exitY=1;exitDx=0;exitDy=0;" edge="1" parent="WIyWlLk6GJQsqaUBKTNV-1" source="dZY50vlLdihh-ie8BGf--14" target="Tj_WuYeDJnZgy0C1tKeC-37">
          <mxGeometry relative="1" as="geometry" />
        </mxCell>
        <mxCell id="dZY50vlLdihh-ie8BGf--15" value="Welcome" style="ellipse;whiteSpace=wrap;html=1;" vertex="1" parent="WIyWlLk6GJQsqaUBKTNV-1">
          <mxGeometry x="320" y="80" width="120" height="40" as="geometry" />
        </mxCell>
        <mxCell id="dZY50vlLdihh-ie8BGf--24" value="" style="edgeStyle=orthogonalEdgeStyle;rounded=0;orthogonalLoop=1;jettySize=auto;html=1;exitX=0.5;exitY=1;exitDx=0;exitDy=0;entryX=0.5;entryY=0;entryDx=0;entryDy=0;" edge="1" parent="WIyWlLk6GJQsqaUBKTNV-1" target="dZY50vlLdihh-ie8BGf--14">
          <mxGeometry relative="1" as="geometry">
            <mxPoint x="380" y="910" as="sourcePoint" />
            <mxPoint x="380" y="980" as="targetPoint" />
          </mxGeometry>
        </mxCell>
        <mxCell id="dZY50vlLdihh-ie8BGf--14" value="Match End" style="rounded=0;whiteSpace=wrap;html=1;" vertex="1" parent="WIyWlLk6GJQsqaUBKTNV-1">
          <mxGeometry x="320" y="910" width="120" height="40" as="geometry" />
        </mxCell>
        <mxCell id="dZY50vlLdihh-ie8BGf--25" value="" style="endArrow=classic;html=1;rounded=0;exitX=0.5;exitY=1;exitDx=0;exitDy=0;entryX=0.5;entryY=0;entryDx=0;entryDy=0;" edge="1" parent="WIyWlLk6GJQsqaUBKTNV-1" target="dZY50vlLdihh-ie8BGf--13">
          <mxGeometry width="50" height="50" relative="1" as="geometry">
            <mxPoint x="380" y="730" as="sourcePoint" />
            <mxPoint x="380" y="790" as="targetPoint" />
          </mxGeometry>
        </mxCell>
        <mxCell id="dZY50vlLdihh-ie8BGf--13" value="Turn End" style="rounded=0;whiteSpace=wrap;html=1;" vertex="1" parent="WIyWlLk6GJQsqaUBKTNV-1">
          <mxGeometry x="320" y="730" width="120" height="40" as="geometry" />
        </mxCell>
        <mxCell id="dZY50vlLdihh-ie8BGf--31" style="edgeStyle=orthogonalEdgeStyle;rounded=0;orthogonalLoop=1;jettySize=auto;html=1;exitX=0.5;exitY=1;exitDx=0;exitDy=0;entryX=0.5;entryY=0;entryDx=0;entryDy=0;" edge="1" parent="WIyWlLk6GJQsqaUBKTNV-1" source="dZY50vlLdihh-ie8BGf--26" target="dZY50vlLdihh-ie8BGf--10">
          <mxGeometry relative="1" as="geometry" />
        </mxCell>
        <mxCell id="dZY50vlLdihh-ie8BGf--37" style="edgeStyle=orthogonalEdgeStyle;rounded=0;orthogonalLoop=1;jettySize=auto;html=1;exitX=1;exitY=0.5;exitDx=0;exitDy=0;entryX=1;entryY=0.5;entryDx=0;entryDy=0;" edge="1" parent="WIyWlLk6GJQsqaUBKTNV-1" source="dZY50vlLdihh-ie8BGf--26" target="dZY50vlLdihh-ie8BGf--14">
          <mxGeometry relative="1" as="geometry" />
        </mxCell>
        <mxCell id="dZY50vlLdihh-ie8BGf--26" value="&lt;div&gt;if Player A HP &amp;lt;= 0&lt;br&gt;&lt;/div&gt;" style="rhombus;whiteSpace=wrap;html=1;shadow=0;fontFamily=Helvetica;fontSize=12;align=center;strokeWidth=1;spacing=6;spacingTop=-4;" vertex="1" parent="WIyWlLk6GJQsqaUBKTNV-1">
          <mxGeometry x="435" y="522.5" width="130" height="55" as="geometry" />
        </mxCell>
        <mxCell id="dZY50vlLdihh-ie8BGf--32" style="edgeStyle=orthogonalEdgeStyle;rounded=0;orthogonalLoop=1;jettySize=auto;html=1;exitX=0.5;exitY=1;exitDx=0;exitDy=0;" edge="1" parent="WIyWlLk6GJQsqaUBKTNV-1" source="dZY50vlLdihh-ie8BGf--27" target="dZY50vlLdihh-ie8BGf--9">
          <mxGeometry relative="1" as="geometry" />
        </mxCell>
        <mxCell id="dZY50vlLdihh-ie8BGf--34" style="edgeStyle=orthogonalEdgeStyle;rounded=0;orthogonalLoop=1;jettySize=auto;html=1;exitX=0;exitY=0.5;exitDx=0;exitDy=0;" edge="1" parent="WIyWlLk6GJQsqaUBKTNV-1" source="dZY50vlLdihh-ie8BGf--27" target="dZY50vlLdihh-ie8BGf--14">
          <mxGeometry relative="1" as="geometry">
            <Array as="points">
              <mxPoint x="160" y="550" />
              <mxPoint x="160" y="930" />
            </Array>
          </mxGeometry>
        </mxCell>
        <mxCell id="dZY50vlLdihh-ie8BGf--27" value="&lt;div&gt;if Player B HP &amp;lt;= 0&lt;br&gt;&lt;/div&gt;" style="rhombus;whiteSpace=wrap;html=1;shadow=0;fontFamily=Helvetica;fontSize=12;align=center;strokeWidth=1;spacing=6;spacingTop=-4;" vertex="1" parent="WIyWlLk6GJQsqaUBKTNV-1">
          <mxGeometry x="195" y="522.5" width="130" height="55" as="geometry" />
        </mxCell>
        <mxCell id="dZY50vlLdihh-ie8BGf--35" value="No" style="text;html=1;align=center;verticalAlign=middle;whiteSpace=wrap;rounded=0;" vertex="1" parent="WIyWlLk6GJQsqaUBKTNV-1">
          <mxGeometry x="248.75" y="570" width="60" height="30" as="geometry" />
        </mxCell>
        <mxCell id="dZY50vlLdihh-ie8BGf--36" value="Yes" style="text;html=1;align=center;verticalAlign=middle;whiteSpace=wrap;rounded=0;" vertex="1" parent="WIyWlLk6GJQsqaUBKTNV-1">
          <mxGeometry x="160" y="522.5" width="60" height="30" as="geometry" />
        </mxCell>
        <mxCell id="dZY50vlLdihh-ie8BGf--38" value="Yes" style="text;html=1;align=center;verticalAlign=middle;whiteSpace=wrap;rounded=0;" vertex="1" parent="WIyWlLk6GJQsqaUBKTNV-1">
          <mxGeometry x="550" y="520" width="60" height="30" as="geometry" />
        </mxCell>
        <mxCell id="dZY50vlLdihh-ie8BGf--39" value="No" style="text;html=1;align=center;verticalAlign=middle;whiteSpace=wrap;rounded=0;" vertex="1" parent="WIyWlLk6GJQsqaUBKTNV-1">
          <mxGeometry x="499" y="570" width="60" height="30" as="geometry" />
        </mxCell>
      </root>
    </mxGraphModel>
  </diagram>
</mxfile>
